<svg width="34" height="34" viewBox="0 0 34 34" fill="none" xmlns="http://www.w3.org/2000/svg">
<path d="M32.9994 24.9518V29.7711C32.9994 31.5382 31.5674 32.9839 29.7975 33C29.701 33 29.6045 33 29.4918 33C24.5363 32.4699 19.7899 30.7671 15.6066 28.0683C11.7129 25.6105 8.4146 22.3173 5.95291 18.4298C3.23378 14.221 1.54438 9.44992 1.01343 4.48609C0.852536 2.71903 2.15578 1.1608 3.92563 1.00016C4.02217 1.00016 4.1187 1.00016 4.21524 1.00016H9.04209C10.651 0.984097 12.0347 2.17285 12.26 3.7632C12.4692 5.30536 12.8392 6.81539 13.3863 8.27723C13.8207 9.44992 13.5471 10.7832 12.6622 11.6668L10.6189 13.7069C12.9036 17.723 16.2502 21.0643 20.2726 23.3454L22.3159 21.3053C23.2169 20.4217 24.5363 20.1326 25.7108 20.5824C27.175 21.1286 28.6874 21.498 30.232 21.7069C31.857 21.9318 33.0315 23.3294 32.9994 24.9679V24.9518Z" stroke="white" stroke-width="2" stroke-linecap="round" stroke-linejoin="round"/>
</svg>
