<svg width="32" height="32" viewBox="0 0 32 32" fill="none" xmlns="http://www.w3.org/2000/svg">
<path fill-rule="evenodd" clip-rule="evenodd" d="M14.5375 24.6047C15.3987 23.9547 16.6012 23.9547 17.4625 24.6047L22.6625 28.5047C24.2712 29.7072 26.5625 28.5697 26.5625 26.5547V5.42969C26.5625 4.08094 25.4737 2.99219 24.125 2.99219H7.875C6.52625 2.99219 5.4375 4.08094 5.4375 5.42969V26.5547C5.4375 28.5534 7.72875 29.7072 9.3375 28.5047L14.5375 24.6047ZM16 26.5547L21.2 30.4547C24.4175 32.8759 29 30.5847 29 26.5547V5.42969C29 2.73219 26.8225 0.554688 24.125 0.554688H7.875C5.1775 0.554688 3 2.73219 3 5.42969V26.5547C3 30.5684 7.5825 32.8597 10.8 30.4547L16 26.5547Z" fill="white"/>
<path fill-rule="evenodd" clip-rule="evenodd" d="M8.5 8.42331C8.5 7.73279 9.18 7.16016 10 7.16016H22C22.82 7.16016 23.5 7.73279 23.5 8.42331C23.5 9.11384 22.82 9.68647 22 9.68647H10C9.18 9.68647 8.5 9.11384 8.5 8.42331Z" fill="white"/>
</svg>
