<svg width="19" height="18" viewBox="0 0 19 18" fill="none" xmlns="http://www.w3.org/2000/svg">
<path d="M15.0249 12.2352H4.81549C4.32716 12.2352 3.92969 11.8586 3.92969 11.396V8.27059C3.92969 7.71651 4.40666 7.26465 4.99151 7.26465H14.8489C15.4337 7.26465 15.9107 7.71651 15.9107 8.27059V11.396C15.9107 11.8586 15.5132 12.2352 15.0249 12.2352Z" stroke="#171717" stroke-width="1.10496" stroke-linecap="round" stroke-linejoin="round"/>
<path d="M16.7509 12.2344H3.08917C2.50274 12.2344 2.02734 12.6847 2.02734 13.2403V16.199C2.02734 16.7545 2.50274 17.2049 3.08917 17.2049H16.7509C17.3373 17.2049 17.8127 16.7545 17.8127 16.199V13.2403C17.8127 12.6847 17.3373 12.2344 16.7509 12.2344Z" stroke="#171717" stroke-width="1.10496" stroke-linecap="round" stroke-linejoin="round"/>
<path d="M6.14426 2.15434C5.47991 2.78372 5.58212 3.86497 6.45656 4.34911C6.89946 4.59656 7.46728 4.59656 7.91018 4.34911C8.78462 3.86497 8.88683 2.77835 8.22248 2.15434L7.18337 1.16992L6.14426 2.15434Z" stroke="#171717" stroke-width="1.10496" stroke-linecap="round" stroke-linejoin="round"/>
<path d="M7.18359 4.66602V6.82851" stroke="#171717" stroke-width="1.10496" stroke-linecap="round" stroke-linejoin="round"/>
<path d="M11.6169 2.15434C10.9526 2.78372 11.0548 3.86497 11.9292 4.34911C12.3721 4.59656 12.9399 4.59656 13.3828 4.34911C14.2573 3.86497 14.3595 2.77835 13.6951 2.15434L12.656 1.16992L11.6169 2.15434Z" stroke="#171717" stroke-width="1.10496" stroke-linecap="round" stroke-linejoin="round"/>
<path d="M12.6562 4.66602V6.82851" stroke="#171717" stroke-width="1.10496" stroke-linecap="round" stroke-linejoin="round"/>
</svg>
