<svg width="18" height="18" viewBox="0 0 18 18" fill="none" xmlns="http://www.w3.org/2000/svg">
<path d="M9.00002 0.666667L11.575 5.88333L17.3334 6.725L13.1667 10.7833L14.15 16.5167L9.00002 13.8083L3.85002 16.5167L4.83335 10.7833L0.666686 6.725L6.42502 5.88333L9.00002 0.666667Z" fill="#FDB022"/>
<path fill-rule="evenodd" clip-rule="evenodd" d="M9.00002 0C9.25377 0 9.48551 0.144048 9.59783 0.371584L12.0179 5.27431L17.4298 6.06534C17.6808 6.10204 17.8893 6.27804 17.9675 6.51938C18.0458 6.76072 17.9803 7.02555 17.7985 7.20257L13.883 11.0162L14.8071 16.404C14.85 16.6541 14.7472 16.9069 14.5418 17.056C14.3365 17.2052 14.0643 17.2248 13.8397 17.1067L9.00002 14.5616L4.16032 17.1067C3.93571 17.2248 3.66352 17.2052 3.4582 17.056C3.25288 16.9069 3.15005 16.6541 3.19295 16.404L4.117 11.0162L0.201531 7.20257C0.0197855 7.02555 -0.0457297 6.76072 0.032522 6.51938C0.110774 6.27804 0.319227 6.10204 0.570267 6.06534L5.98218 5.27431L8.40222 0.371584C8.51453 0.144048 8.74627 0 9.00002 0ZM9.00002 2.17284L7.02283 6.17842C6.9258 6.37498 6.73834 6.51129 6.52144 6.54299L2.09896 7.1894L5.29851 10.3058C5.45576 10.4589 5.52753 10.6797 5.49043 10.896L4.73547 15.2978L8.68972 13.2183C8.88397 13.1161 9.11607 13.1161 9.31032 13.2183L13.2646 15.2978L12.5096 10.896C12.4725 10.6797 12.5443 10.4589 12.7015 10.3058L15.9011 7.1894L11.4786 6.54299C11.2617 6.51129 11.0742 6.37498 10.9772 6.17842L9.00002 2.17284Z" fill="#FDB022"/>
</svg>
