<svg width="64" height="64" viewBox="0 0 64 64" fill="none" xmlns="http://www.w3.org/2000/svg">
<g clip-path="url(#clip0_445_61303)">
<path d="M64 32C64 49.6667 49.6667 64 32 64C14.3333 64 0 49.6667 0 32C0 14.3333 14.3333 0 32 0C49.6667 0 64 14.3333 64 32Z" fill="#2E90FA"/>
<path d="M50.6667 33.3333C50.6667 42.9067 42.9067 50.6667 33.3333 50.6667C23.76 50.6667 16 42.9067 16 33.3333C16 23.76 23.76 16 33.3333 16C42.9067 16 50.6667 23.76 50.6667 33.3333Z" fill="#1570EF"/>
<path d="M49.3337 32.0013C49.3337 41.5746 41.5737 49.3346 32.0003 49.3346C22.427 49.3346 14.667 41.5746 14.667 32.0013C14.667 22.428 22.427 14.668 32.0003 14.668C41.5737 14.668 49.3337 22.428 49.3337 32.0013Z" fill="white"/>
<path d="M39.6529 32.8811L27.8529 40.6677C27.5329 40.8811 27.1196 40.8944 26.7729 40.7211C26.4262 40.5344 26.2129 40.1744 26.2129 39.7877V24.2144C26.2129 23.8277 26.4262 23.4677 26.7729 23.2811C27.1196 23.0944 27.5329 23.1211 27.8529 23.3344L39.6529 31.1211C39.9462 31.3211 40.1329 31.6411 40.1329 32.0011C40.1329 32.3611 39.9596 32.6811 39.6529 32.8811Z" fill="#334861"/>
</g>
<defs>
<clipPath id="clip0_445_61303">
<rect width="64" height="64" fill="white"/>
</clipPath>
</defs>
</svg>
